<?xml version="1.0" encoding="UTF-8"?>
<svg xmlns="http://www.w3.org/2000/svg" xmlns:xlink="http://www.w3.org/1999/xlink" width="50px" height="50px" viewBox="0 0 50 50" version="1.1">
<g id="surface1">
<path style=" stroke:none;fill-rule:nonzero;fill:rgb(99.607843%,99.607843%,99.607843%);fill-opacity:1;" d="M 0 0 C 16.5 0 33 0 50 0 C 50 16.5 50 33 50 50 C 33.5 50 17 50 0 50 C 0 33.5 0 17 0 0 Z M 0 0 "/>
<path style=" stroke:none;fill-rule:nonzero;fill:rgb(75.294119%,2.745098%,2.745098%);fill-opacity:1;" d="M 1.785156 18.394531 C 3.730469 18.394531 5.675781 18.394531 7.679688 18.394531 C 7.679688 18.511719 7.679688 18.628906 7.679688 18.75 C 7.328125 18.820312 6.980469 18.890625 6.632812 18.960938 C 6.105469 19.164062 5.882812 19.371094 5.535156 19.820312 C 5.464844 20.34375 5.441406 20.792969 5.445312 21.3125 C 5.445312 21.457031 5.445312 21.605469 5.445312 21.753906 C 5.445312 22.0625 5.449219 22.367188 5.453125 22.675781 C 5.457031 23.140625 5.457031 23.605469 5.453125 24.074219 C 5.433594 26.621094 5.433594 26.621094 6.441406 28.90625 C 7.582031 29.730469 8.773438 30.179688 10.179688 30 C 11.054688 29.753906 11.75 29.46875 12.230469 28.671875 C 12.664062 27.648438 12.710938 26.710938 12.722656 25.609375 C 12.722656 25.460938 12.722656 25.316406 12.726562 25.164062 C 12.726562 24.855469 12.730469 24.542969 12.730469 24.234375 C 12.734375 23.917969 12.738281 23.605469 12.742188 23.289062 C 12.75 22.832031 12.753906 22.371094 12.753906 21.914062 C 12.757812 21.773438 12.761719 21.632812 12.765625 21.488281 C 12.761719 20.554688 12.585938 20.027344 11.964844 19.285156 C 11.554688 19.050781 11.554688 19.050781 11.117188 18.949219 C 10.972656 18.910156 10.832031 18.871094 10.683594 18.828125 C 10.574219 18.804688 10.46875 18.777344 10.355469 18.75 C 10.355469 18.632812 10.355469 18.515625 10.355469 18.394531 C 11.40625 18.324219 12.449219 18.277344 13.5 18.246094 C 13.855469 18.230469 14.210938 18.214844 14.566406 18.191406 C 17.671875 17.992188 17.671875 17.992188 18.820312 18.972656 C 19.371094 19.527344 19.855469 20.125 20.3125 20.761719 C 20.589844 21.144531 20.898438 21.492188 21.214844 21.839844 C 21.308594 21.949219 21.398438 22.054688 21.496094 22.164062 C 21.847656 22.570312 22.207031 22.964844 22.566406 23.359375 C 23.285156 24.152344 23.957031 24.972656 24.628906 25.804688 C 24.949219 26.1875 25.277344 26.539062 25.636719 26.886719 C 25.851562 27.101562 25.851562 27.101562 26.070312 27.320312 C 26.070312 27.4375 26.070312 27.558594 26.070312 27.679688 C 26.1875 27.679688 26.308594 27.679688 26.429688 27.679688 C 26.417969 26.710938 26.402344 25.742188 26.382812 24.773438 C 26.375 24.441406 26.371094 24.113281 26.367188 23.785156 C 26.359375 23.308594 26.351562 22.835938 26.339844 22.359375 C 26.339844 22.140625 26.339844 22.140625 26.339844 21.917969 C 26.3125 20.976562 26.164062 20.300781 25.714844 19.464844 C 25.28125 19.167969 25.28125 19.167969 24.789062 19.027344 C 24.628906 18.972656 24.464844 18.917969 24.300781 18.863281 C 24.117188 18.808594 24.117188 18.808594 23.929688 18.75 C 23.929688 18.632812 23.929688 18.515625 23.929688 18.394531 C 29.46875 18.394531 35.007812 18.394531 40.714844 18.394531 C 40.714844 18.511719 40.714844 18.628906 40.714844 18.75 C 40.242188 18.925781 39.769531 19.105469 39.285156 19.285156 C 39.183594 20.574219 39.527344 21.5 40.023438 22.679688 C 40.171875 23.042969 40.316406 23.40625 40.464844 23.769531 C 40.539062 23.949219 40.609375 24.125 40.6875 24.308594 C 41.019531 25.140625 41.328125 25.980469 41.632812 26.824219 C 41.824219 27.339844 42.011719 27.753906 42.320312 28.214844 C 42.730469 27.171875 43.136719 26.125 43.542969 25.078125 C 43.679688 24.722656 43.820312 24.367188 43.957031 24.011719 C 44.160156 23.5 44.355469 22.988281 44.554688 22.476562 C 44.648438 22.242188 44.648438 22.242188 44.742188 22 C 45.082031 21.109375 45.25 20.417969 45.179688 19.464844 C 44.589844 19.15625 44.046875 18.875 43.394531 18.75 C 43.394531 18.632812 43.394531 18.515625 43.394531 18.394531 C 44.984375 18.394531 46.574219 18.394531 48.214844 18.394531 C 48.214844 18.511719 48.214844 18.628906 48.214844 18.75 C 48.003906 18.816406 47.792969 18.882812 47.578125 18.949219 C 45.777344 19.871094 45.132812 22.960938 44.472656 24.738281 C 44.058594 25.855469 43.613281 26.957031 43.167969 28.0625 C 42.785156 29.007812 42.433594 29.957031 42.121094 30.929688 C 42.070312 31.035156 42.019531 31.140625 41.964844 31.25 C 41.789062 31.308594 41.609375 31.367188 41.429688 31.429688 C 41.363281 31.253906 41.296875 31.078125 41.230469 30.898438 C 40.777344 29.671875 40.3125 28.453125 39.820312 27.242188 C 39.441406 26.304688 39.09375 25.355469 38.761719 24.398438 C 38.386719 23.328125 38.003906 22.261719 37.589844 21.207031 C 37.519531 21.015625 37.519531 21.015625 37.449219 20.824219 C 37.089844 19.933594 36.707031 19.449219 35.894531 18.929688 C 35.3125 18.808594 35.3125 18.808594 34.722656 18.851562 C 34.527344 18.855469 34.332031 18.859375 34.128906 18.863281 C 33.570312 18.929688 33.171875 19.015625 32.679688 19.285156 C 32.328125 19.832031 32.277344 20.261719 32.277344 20.902344 C 32.277344 21.082031 32.277344 21.261719 32.277344 21.445312 C 32.277344 21.640625 32.277344 21.832031 32.28125 22.03125 C 32.28125 22.230469 32.28125 22.429688 32.28125 22.632812 C 32.28125 23.054688 32.28125 23.476562 32.285156 23.894531 C 32.289062 24.539062 32.289062 25.183594 32.289062 25.828125 C 32.289062 26.234375 32.289062 26.644531 32.292969 27.054688 C 32.292969 27.339844 32.292969 27.339844 32.292969 27.636719 C 32.292969 27.816406 32.292969 27.996094 32.296875 28.179688 C 32.296875 28.339844 32.296875 28.496094 32.296875 28.660156 C 32.320312 29.121094 32.398438 29.550781 32.5 30 C 33.101562 30.015625 33.707031 30.023438 34.308594 30.035156 C 34.476562 30.039062 34.648438 30.042969 34.824219 30.046875 C 35.789062 30.058594 36.503906 30.039062 37.320312 29.464844 C 37.703125 29.042969 37.703125 29.042969 38.003906 28.558594 C 38.105469 28.402344 38.210938 28.246094 38.316406 28.085938 C 38.570312 27.695312 38.570312 27.695312 38.75 27.320312 C 38.867188 27.320312 38.984375 27.320312 39.105469 27.320312 C 38.996094 27.785156 38.886719 28.25 38.773438 28.714844 C 38.742188 28.847656 38.710938 28.980469 38.679688 29.117188 C 38.527344 29.730469 38.390625 30.183594 38.035156 30.714844 C 37.632812 30.777344 37.632812 30.777344 37.125 30.773438 C 36.9375 30.773438 36.746094 30.773438 36.550781 30.773438 C 36.246094 30.769531 36.246094 30.769531 35.929688 30.765625 C 35.722656 30.765625 35.511719 30.765625 35.296875 30.765625 C 34.625 30.761719 33.953125 30.753906 33.28125 30.746094 C 32.828125 30.746094 32.371094 30.742188 31.917969 30.742188 C 30.800781 30.734375 29.6875 30.726562 28.570312 30.714844 C 28.570312 30.597656 28.570312 30.480469 28.570312 30.355469 C 28.925781 30.289062 29.28125 30.21875 29.636719 30.148438 C 30.117188 29.953125 30.261719 29.726562 30.535156 29.285156 C 30.613281 28.851562 30.613281 28.851562 30.601562 28.382812 C 30.601562 28.203125 30.605469 28.023438 30.605469 27.839844 C 30.605469 27.644531 30.601562 27.453125 30.601562 27.253906 C 30.601562 27.054688 30.601562 26.855469 30.601562 26.652344 C 30.601562 26.230469 30.597656 25.8125 30.597656 25.390625 C 30.589844 24.746094 30.59375 24.101562 30.59375 23.460938 C 30.59375 23.050781 30.589844 22.640625 30.589844 22.234375 C 30.589844 21.945312 30.589844 21.945312 30.589844 21.648438 C 30.589844 21.46875 30.585938 21.289062 30.585938 21.105469 C 30.582031 20.945312 30.582031 20.789062 30.582031 20.625 C 30.53125 20.121094 30.398438 19.742188 30.179688 19.285156 C 29.546875 18.777344 28.804688 18.867188 28.035156 18.929688 C 27.519531 19.203125 27.492188 19.492188 27.3125 20.054688 C 27.0625 21.097656 27.078125 22.152344 27.070312 23.21875 C 27.066406 23.441406 27.0625 23.660156 27.058594 23.886719 C 27.046875 24.585938 27.039062 25.285156 27.03125 25.980469 C 27.023438 26.457031 27.015625 26.933594 27.011719 27.40625 C 26.992188 28.570312 26.976562 29.730469 26.964844 30.894531 C 26.234375 30.5625 25.820312 30.078125 25.324219 29.464844 C 25.148438 29.253906 24.976562 29.042969 24.800781 28.832031 C 24.671875 28.675781 24.671875 28.675781 24.539062 28.515625 C 24.054688 27.941406 23.546875 27.386719 23.042969 26.832031 C 22.710938 26.464844 22.378906 26.089844 22.054688 25.714844 C 21.449219 25.019531 20.832031 24.339844 20.21875 23.65625 C 19.742188 23.125 19.273438 22.589844 18.804688 22.054688 C 18.671875 21.902344 18.535156 21.75 18.394531 21.605469 C 18.378906 22.578125 18.371094 23.550781 18.363281 24.523438 C 18.359375 24.855469 18.355469 25.183594 18.351562 25.515625 C 18.347656 25.992188 18.34375 26.46875 18.339844 26.945312 C 18.335938 27.089844 18.335938 27.238281 18.332031 27.386719 C 18.332031 28.273438 18.4375 28.875 18.929688 29.644531 C 19.441406 30.023438 19.90625 30.242188 20.535156 30.355469 C 20.535156 30.476562 20.535156 30.59375 20.535156 30.714844 C 18.828125 30.714844 17.117188 30.714844 15.355469 30.714844 C 15.714844 30.355469 15.714844 30.355469 16.238281 30.121094 C 16.855469 29.785156 17.035156 29.5625 17.320312 28.929688 C 17.558594 28.0625 17.53125 27.191406 17.535156 26.300781 C 17.539062 26.132812 17.539062 25.964844 17.539062 25.792969 C 17.542969 25.441406 17.542969 25.089844 17.542969 24.738281 C 17.542969 24.199219 17.550781 23.660156 17.554688 23.121094 C 17.558594 22.777344 17.558594 22.4375 17.558594 22.09375 C 17.5625 21.851562 17.5625 21.851562 17.566406 21.605469 C 17.5625 20.75 17.539062 20.152344 16.964844 19.464844 C 16.285156 19.066406 15.734375 18.878906 14.957031 18.929688 C 14.285156 19.039062 14.285156 19.039062 13.980469 19.457031 C 13.660156 20.210938 13.664062 20.890625 13.652344 21.703125 C 13.640625 22.042969 13.628906 22.382812 13.621094 22.722656 C 13.605469 23.25 13.59375 23.78125 13.582031 24.3125 C 13.492188 28.523438 13.492188 28.523438 11.898438 30.089844 C 10.953125 30.890625 9.75 30.949219 8.558594 30.9375 C 8.4375 30.9375 8.316406 30.941406 8.191406 30.941406 C 6.925781 30.9375 5.992188 30.601562 5 29.820312 C 3.917969 28.597656 3.902344 27.476562 3.898438 25.898438 C 3.894531 25.546875 3.890625 25.195312 3.882812 24.84375 C 3.878906 24.289062 3.871094 23.734375 3.871094 23.183594 C 3.867188 22.648438 3.859375 22.113281 3.851562 21.578125 C 3.851562 21.414062 3.851562 21.246094 3.855469 21.078125 C 3.84375 20.164062 3.84375 20.164062 3.429688 19.367188 C 2.90625 19.023438 2.390625 18.890625 1.785156 18.75 C 1.785156 18.632812 1.785156 18.515625 1.785156 18.394531 Z M 1.785156 18.394531 "/>
<path style=" stroke:none;fill-rule:nonzero;fill:rgb(74.901962%,1.176471%,1.176471%);fill-opacity:1;" d="M 28.75 18.570312 C 30.519531 18.570312 32.285156 18.570312 34.105469 18.570312 C 33.570312 18.929688 33.570312 18.929688 33.113281 19.085938 C 32.585938 19.328125 32.527344 19.46875 32.320312 20 C 32.269531 20.433594 32.269531 20.433594 32.277344 20.902344 C 32.277344 21.082031 32.277344 21.261719 32.277344 21.445312 C 32.277344 21.640625 32.277344 21.832031 32.28125 22.03125 C 32.28125 22.230469 32.28125 22.429688 32.28125 22.632812 C 32.28125 23.054688 32.28125 23.476562 32.285156 23.894531 C 32.289062 24.539062 32.289062 25.183594 32.289062 25.828125 C 32.289062 26.234375 32.289062 26.644531 32.292969 27.054688 C 32.292969 27.246094 32.292969 27.4375 32.292969 27.636719 C 32.292969 27.816406 32.292969 27.996094 32.296875 28.179688 C 32.296875 28.339844 32.296875 28.496094 32.296875 28.660156 C 32.320312 29.121094 32.398438 29.550781 32.5 30 C 33.101562 30.015625 33.707031 30.023438 34.308594 30.035156 C 34.476562 30.039062 34.648438 30.042969 34.824219 30.046875 C 35.789062 30.058594 36.503906 30.039062 37.320312 29.464844 C 37.703125 29.042969 37.703125 29.042969 38.003906 28.558594 C 38.160156 28.324219 38.160156 28.324219 38.316406 28.085938 C 38.570312 27.695312 38.570312 27.695312 38.75 27.320312 C 38.867188 27.320312 38.984375 27.320312 39.105469 27.320312 C 38.996094 27.785156 38.886719 28.25 38.773438 28.714844 C 38.742188 28.847656 38.710938 28.980469 38.679688 29.117188 C 38.527344 29.730469 38.390625 30.183594 38.035156 30.714844 C 37.632812 30.777344 37.632812 30.777344 37.125 30.773438 C 36.9375 30.773438 36.746094 30.773438 36.550781 30.773438 C 36.246094 30.769531 36.246094 30.769531 35.929688 30.765625 C 35.722656 30.765625 35.511719 30.765625 35.296875 30.765625 C 34.625 30.761719 33.953125 30.753906 33.28125 30.746094 C 32.828125 30.746094 32.371094 30.742188 31.917969 30.742188 C 30.800781 30.734375 29.6875 30.726562 28.570312 30.714844 C 28.570312 30.597656 28.570312 30.480469 28.570312 30.355469 C 28.925781 30.289062 29.28125 30.21875 29.636719 30.148438 C 30.117188 29.953125 30.261719 29.726562 30.535156 29.285156 C 30.613281 28.851562 30.613281 28.851562 30.601562 28.382812 C 30.601562 28.203125 30.605469 28.023438 30.605469 27.839844 C 30.605469 27.644531 30.601562 27.453125 30.601562 27.253906 C 30.601562 27.054688 30.601562 26.855469 30.601562 26.652344 C 30.601562 26.230469 30.597656 25.8125 30.597656 25.390625 C 30.589844 24.746094 30.59375 24.101562 30.59375 23.460938 C 30.59375 23.050781 30.589844 22.640625 30.589844 22.234375 C 30.589844 22.039062 30.589844 21.847656 30.589844 21.648438 C 30.589844 21.46875 30.585938 21.289062 30.585938 21.105469 C 30.582031 20.945312 30.582031 20.789062 30.582031 20.625 C 30.53125 20.121094 30.402344 19.742188 30.179688 19.285156 C 29.835938 19.066406 29.835938 19.066406 29.441406 18.960938 C 29.3125 18.921875 29.183594 18.878906 29.050781 18.835938 C 28.949219 18.808594 28.851562 18.777344 28.75 18.75 C 28.75 18.691406 28.75 18.632812 28.75 18.570312 Z M 28.75 18.570312 "/>
<path style=" stroke:none;fill-rule:nonzero;fill:rgb(78.431374%,15.686275%,15.686275%);fill-opacity:1;" d="M 23.929688 18.394531 C 29.46875 18.394531 35.007812 18.394531 40.714844 18.394531 C 40.65625 18.511719 40.597656 18.628906 40.535156 18.75 C 40.316406 18.75 40.316406 18.75 40.09375 18.746094 C 38.722656 18.742188 37.351562 18.734375 35.980469 18.730469 C 35.277344 18.730469 34.570312 18.726562 33.867188 18.722656 C 33.183594 18.71875 32.503906 18.71875 31.824219 18.714844 C 31.566406 18.714844 31.304688 18.714844 31.046875 18.710938 C 30.683594 18.710938 30.316406 18.710938 29.953125 18.710938 C 29.644531 18.707031 29.644531 18.707031 29.328125 18.707031 C 28.71875 18.753906 28.242188 18.875 27.679688 19.105469 C 27.277344 19.640625 27.230469 20.242188 27.144531 20.894531 C 26.964844 20.714844 26.789062 20.539062 26.605469 20.355469 C 26.488281 20.476562 26.371094 20.59375 26.25 20.714844 C 26.199219 20.523438 26.148438 20.332031 26.09375 20.132812 C 25.890625 19.640625 25.753906 19.488281 25.28125 19.222656 C 24.832031 19.046875 24.386719 18.890625 23.929688 18.75 C 23.929688 18.632812 23.929688 18.515625 23.929688 18.394531 Z M 23.929688 18.394531 "/>
<path style=" stroke:none;fill-rule:nonzero;fill:rgb(76.862746%,8.235294%,8.235294%);fill-opacity:1;" d="M 18.035156 21.25 C 18.152344 21.308594 18.269531 21.367188 18.394531 21.429688 C 18.390625 21.640625 18.386719 21.851562 18.382812 22.066406 C 18.375 22.851562 18.367188 23.636719 18.363281 24.421875 C 18.359375 24.761719 18.355469 25.101562 18.351562 25.4375 C 18.347656 25.925781 18.34375 26.414062 18.339844 26.90625 C 18.335938 27.054688 18.335938 27.207031 18.332031 27.359375 C 18.332031 28.253906 18.429688 28.867188 18.929688 29.644531 C 19.441406 30.023438 19.90625 30.242188 20.535156 30.355469 C 20.535156 30.476562 20.535156 30.59375 20.535156 30.714844 C 18.828125 30.714844 17.117188 30.714844 15.355469 30.714844 C 15.714844 30.355469 15.714844 30.355469 16.238281 30.121094 C 16.855469 29.785156 17.035156 29.5625 17.320312 28.929688 C 17.382812 28.632812 17.441406 28.332031 17.5 28.035156 C 17.675781 27.949219 17.675781 27.949219 17.855469 27.855469 C 17.917969 25.675781 17.976562 23.496094 18.035156 21.25 Z M 18.035156 21.25 "/>
<path style=" stroke:none;fill-rule:nonzero;fill:rgb(75.686276%,4.705882%,4.705882%);fill-opacity:1;" d="M 10.355469 18.394531 C 12.890625 18.394531 15.425781 18.394531 18.035156 18.394531 C 18.035156 18.453125 18.035156 18.511719 18.035156 18.570312 C 17.765625 18.582031 17.765625 18.582031 17.492188 18.589844 C 15.722656 18.640625 15.722656 18.640625 14.105469 19.285156 C 13.777344 19.808594 13.699219 20.238281 13.675781 20.851562 C 13.667969 21.011719 13.664062 21.167969 13.65625 21.332031 C 13.648438 21.578125 13.648438 21.578125 13.636719 21.832031 C 13.632812 21.996094 13.625 22.164062 13.617188 22.335938 C 13.601562 22.75 13.585938 23.160156 13.570312 23.570312 C 13.511719 23.570312 13.453125 23.570312 13.394531 23.570312 C 13.394531 22.6875 13.394531 21.804688 13.394531 20.894531 C 13.273438 20.894531 13.15625 20.894531 13.035156 20.894531 C 13.035156 20.714844 13.035156 20.539062 13.035156 20.355469 C 12.917969 20.355469 12.800781 20.355469 12.679688 20.355469 C 12.585938 20.191406 12.496094 20.027344 12.398438 19.855469 C 11.925781 19.089844 11.191406 18.953125 10.355469 18.75 C 10.355469 18.632812 10.355469 18.515625 10.355469 18.394531 Z M 10.355469 18.394531 "/>
<path style=" stroke:none;fill-rule:nonzero;fill:rgb(75.294119%,2.352941%,2.352941%);fill-opacity:1;" d="M 38.75 27.320312 C 38.867188 27.320312 38.984375 27.320312 39.105469 27.320312 C 38.996094 27.785156 38.886719 28.25 38.773438 28.714844 C 38.742188 28.847656 38.710938 28.980469 38.679688 29.117188 C 38.527344 29.730469 38.390625 30.183594 38.035156 30.714844 C 37.5625 30.765625 37.136719 30.78125 36.664062 30.769531 C 36.527344 30.769531 36.394531 30.765625 36.257812 30.765625 C 34.929688 30.738281 33.632812 30.570312 32.320312 30.355469 C 32.320312 30.296875 32.320312 30.238281 32.320312 30.179688 C 32.433594 30.175781 32.546875 30.171875 32.664062 30.171875 C 33.183594 30.15625 33.699219 30.140625 34.21875 30.121094 C 34.488281 30.117188 34.488281 30.117188 34.757812 30.109375 C 35.730469 30.074219 36.5 30.039062 37.320312 29.464844 C 37.703125 29.042969 37.703125 29.042969 38.003906 28.558594 C 38.105469 28.402344 38.210938 28.246094 38.316406 28.085938 C 38.570312 27.695312 38.570312 27.695312 38.75 27.320312 Z M 38.75 27.320312 "/>
<path style=" stroke:none;fill-rule:nonzero;fill:rgb(73.333335%,1.568628%,1.568628%);fill-opacity:1;" d="M 13.035156 26.605469 C 13.152344 26.667969 13.269531 26.726562 13.394531 26.785156 C 13.320312 28.132812 12.941406 29.007812 11.996094 29.976562 C 11.507812 30.394531 11.136719 30.699219 10.484375 30.738281 C 10.089844 30.691406 10.089844 30.691406 9.464844 30.535156 C 9.941406 30.121094 10.402344 29.910156 10.980469 29.6875 C 11.707031 29.375 12.035156 29.082031 12.375 28.371094 C 12.570312 27.847656 12.71875 27.324219 12.855469 26.785156 C 12.917969 26.726562 12.976562 26.667969 13.035156 26.605469 Z M 13.035156 26.605469 "/>
<path style=" stroke:none;fill-rule:nonzero;fill:rgb(77.64706%,14.901961%,14.901961%);fill-opacity:1;" d="M 43.394531 18.394531 C 44.984375 18.394531 46.574219 18.394531 48.214844 18.394531 C 48.214844 18.511719 48.214844 18.628906 48.214844 18.75 C 47.859375 18.867188 47.507812 18.984375 47.144531 19.105469 C 47.144531 18.988281 47.144531 18.871094 47.144531 18.75 C 46.820312 18.769531 46.496094 18.792969 46.171875 18.816406 C 45.992188 18.828125 45.8125 18.84375 45.625 18.855469 C 45.476562 18.878906 45.332031 18.902344 45.179688 18.929688 C 45.121094 19.046875 45.0625 19.164062 45 19.285156 C 44.46875 19.109375 43.9375 18.933594 43.394531 18.75 C 43.394531 18.632812 43.394531 18.515625 43.394531 18.394531 Z M 43.394531 18.394531 "/>
<path style=" stroke:none;fill-rule:nonzero;fill:rgb(81.176472%,24.705882%,24.705882%);fill-opacity:1;" d="M 10.355469 18.394531 C 12.890625 18.394531 15.425781 18.394531 18.035156 18.394531 C 18.035156 18.453125 18.035156 18.511719 18.035156 18.570312 C 17.855469 18.582031 17.679688 18.59375 17.492188 18.605469 C 17.253906 18.621094 17.015625 18.632812 16.773438 18.648438 C 16.539062 18.664062 16.304688 18.679688 16.066406 18.695312 C 15.402344 18.746094 14.761719 18.828125 14.105469 18.929688 C 14.105469 18.8125 14.105469 18.691406 14.105469 18.570312 C 12.871094 18.570312 11.632812 18.570312 10.355469 18.570312 C 10.355469 18.511719 10.355469 18.453125 10.355469 18.394531 Z M 10.355469 18.394531 "/>
<path style=" stroke:none;fill-rule:nonzero;fill:rgb(74.901962%,6.27451%,6.27451%);fill-opacity:1;" d="M 46.070312 19.820312 C 46.3125 20.542969 46.050781 20.96875 45.757812 21.628906 C 45.710938 21.746094 45.664062 21.859375 45.617188 21.980469 C 45.484375 22.277344 45.332031 22.570312 45.179688 22.855469 C 45 22.917969 44.824219 22.976562 44.644531 23.035156 C 44.742188 22.21875 44.894531 21.488281 45.179688 20.714844 C 45.355469 20.773438 45.53125 20.832031 45.714844 20.894531 C 45.832031 20.539062 45.949219 20.1875 46.070312 19.820312 Z M 46.070312 19.820312 "/>
<path style=" stroke:none;fill-rule:nonzero;fill:rgb(75.686276%,10.196079%,10.196079%);fill-opacity:1;" d="M 32.320312 30.179688 C 33.734375 30.179688 35.148438 30.179688 36.605469 30.179688 C 36.097656 30.6875 35.710938 30.65625 35 30.714844 C 34.519531 30.671875 34.058594 30.621094 33.582031 30.546875 C 33.398438 30.519531 33.398438 30.519531 33.210938 30.492188 C 32.914062 30.449219 32.617188 30.402344 32.320312 30.355469 C 32.320312 30.296875 32.320312 30.238281 32.320312 30.179688 Z M 32.320312 30.179688 "/>
<path style=" stroke:none;fill-rule:nonzero;fill:rgb(76.078433%,8.235294%,8.235294%);fill-opacity:1;" d="M 44.464844 22.679688 C 44.523438 22.796875 44.582031 22.914062 44.644531 23.035156 C 44.761719 23.035156 44.878906 23.035156 45 23.035156 C 44.824219 23.625 44.644531 24.214844 44.464844 24.820312 C 44.230469 24.820312 43.992188 24.820312 43.75 24.820312 C 43.835938 24.53125 43.921875 24.242188 44.007812 23.949219 C 44.054688 23.789062 44.101562 23.628906 44.152344 23.460938 C 44.285156 23.035156 44.285156 23.035156 44.464844 22.679688 Z M 44.464844 22.679688 "/>
<path style=" stroke:none;fill-rule:nonzero;fill:rgb(76.47059%,10.980392%,10.980392%);fill-opacity:1;" d="M 38.75 27.320312 C 38.867188 27.320312 38.984375 27.320312 39.105469 27.320312 C 38.871094 28.265625 38.636719 29.207031 38.394531 30.179688 C 38.332031 30.179688 38.273438 30.179688 38.214844 30.179688 C 37.765625 28.980469 37.765625 28.980469 38.019531 28.335938 C 38.242188 27.96875 38.457031 27.636719 38.75 27.320312 Z M 38.75 27.320312 "/>
<path style=" stroke:none;fill-rule:nonzero;fill:rgb(77.254903%,10.980392%,10.980392%);fill-opacity:1;" d="M 11.070312 29.820312 C 11.128906 30.058594 11.1875 30.292969 11.25 30.535156 C 10.589844 30.707031 10.125 30.707031 9.464844 30.535156 C 9.980469 30.125 10.382812 29.820312 11.070312 29.820312 Z M 11.070312 29.820312 "/>
<path style=" stroke:none;fill-rule:nonzero;fill:rgb(76.862746%,11.764706%,11.764706%);fill-opacity:1;" d="M 13.035156 26.605469 C 13.152344 26.667969 13.269531 26.726562 13.394531 26.785156 C 13.332031 27.257812 13.273438 27.730469 13.214844 28.214844 C 12.933594 28.003906 12.933594 28.003906 12.679688 27.679688 C 12.753906 26.890625 12.753906 26.890625 13.035156 26.605469 Z M 13.035156 26.605469 "/>
<path style=" stroke:none;fill-rule:nonzero;fill:rgb(74.509805%,5.098039%,5.098039%);fill-opacity:1;" d="M 12.679688 27.679688 C 12.796875 27.738281 12.914062 27.796875 13.035156 27.855469 C 12.902344 28.882812 12.902344 28.882812 12.5 29.285156 C 12.5 29.167969 12.5 29.050781 12.5 28.929688 C 12.382812 28.871094 12.265625 28.8125 12.144531 28.75 C 12.320312 28.394531 12.496094 28.042969 12.679688 27.679688 Z M 12.679688 27.679688 "/>
<path style=" stroke:none;fill-rule:nonzero;fill:rgb(74.901962%,5.098039%,5.098039%);fill-opacity:1;" d="M 43.75 24.820312 C 43.925781 24.820312 44.105469 24.820312 44.285156 24.820312 C 44.167969 25.234375 44.050781 25.644531 43.929688 26.070312 C 43.8125 26.011719 43.691406 25.953125 43.570312 25.894531 C 43.5625 25.59375 43.5625 25.296875 43.570312 25 C 43.628906 24.941406 43.6875 24.882812 43.75 24.820312 Z M 43.75 24.820312 "/>
<path style=" stroke:none;fill-rule:nonzero;fill:rgb(77.64706%,15.686275%,15.686275%);fill-opacity:1;" d="M 44.105469 23.570312 C 44.167969 23.75 44.226562 23.925781 44.285156 24.105469 C 44.402344 24.105469 44.519531 24.105469 44.644531 24.105469 C 44.582031 24.34375 44.523438 24.578125 44.464844 24.820312 C 44.230469 24.820312 43.992188 24.820312 43.75 24.820312 C 43.867188 24.410156 43.984375 23.996094 44.105469 23.570312 Z M 44.105469 23.570312 "/>
</g>
</svg>
